<?xml version="1.0" standalone="no"?>
<!DOCTYPE svg PUBLIC "-//W3C//DTD SVG 20010904//EN"
 "http://www.w3.org/TR/2001/REC-SVG-20010904/DTD/svg10.dtd">
<svg version="1.0" xmlns="http://www.w3.org/2000/svg"
 width="260.000000pt" height="260.000000pt" viewBox="0 0 260.000000 260.000000"
 preserveAspectRatio="xMidYMid meet">
<metadata>
Created by potrace 1.14, written by Peter Selinger 2001-2017
</metadata>
<g transform="translate(0.000000,260.000000) scale(0.100000,-0.100000)"
fill="#000000" stroke="none">
<path d="M738 2422 c-15 -20 -45 -62 -67 -92 -39 -52 -55 -110 -31 -110 5 0 8
-14 6 -32 -4 -35 2 -60 13 -54 4 3 7 -3 8 -12 2 -30 12 -64 23 -78 7 -7 9 -18
5 -23 -3 -6 3 -16 15 -23 23 -15 27 -30 5 -22 -17 7 -12 -14 11 -51 12 -19 11
-20 -32 -20 -24 0 -44 3 -44 6 0 4 -15 7 -34 7 -19 0 -40 3 -47 8 -7 4 -10 3
-5 -4 3 -6 2 -13 -4 -17 -5 -3 -10 -2 -10 3 0 15 -30 23 -49 12 -12 -6 -22 -5
-29 2 -9 9 -12 9 -12 -1 0 -9 -4 -9 -14 2 -17 16 -70 11 -59 -6 3 -6 1 -7 -5
-3 -17 11 -55 -13 -48 -30 3 -8 2 -12 -3 -9 -6 3 -21 -10 -35 -28 -28 -37 -33
-52 -13 -41 7 4 9 3 4 -2 -5 -5 -14 -9 -20 -9 -17 0 -48 -60 -41 -79 8 -21 21
-20 27 2 3 12 5 11 6 -6 0 -13 5 -20 11 -17 5 3 8 0 5 -7 -3 -8 12 -23 35 -38
23 -14 51 -40 63 -57 12 -18 25 -33 30 -33 4 0 23 -16 42 -36 22 -22 41 -34
50 -30 9 3 15 0 15 -9 0 -8 19 -32 42 -55 41 -39 65 -52 53 -27 -4 6 5 -1 19
-18 20 -23 26 -26 26 -12 0 9 5 17 10 17 7 0 7 -7 0 -21 -7 -11 -9 -23 -7 -26
9 -8 113 53 166 97 33 29 80 52 91 45 5 -3 7 3 5 14 -5 26 -42 64 -48 48 -2
-6 -11 2 -21 19 -18 30 -58 55 -79 50 -7 -1 -9 -1 -4 1 16 10 6 31 -18 37 -14
4 -25 12 -25 18 0 6 3 9 6 5 3 -3 17 -2 31 4 16 6 22 6 18 -1 -4 -6 5 -10 20
-10 15 0 24 4 20 10 -3 6 -1 10 4 10 6 0 11 -5 11 -11 0 -7 12 -10 30 -7 17 3
30 0 30 -5 0 -6 10 -2 22 9 12 10 18 13 14 7 -5 -10 4 -13 37 -13 31 0 47 5
51 16 3 8 10 13 15 10 17 -11 20 23 5 51 -8 15 -17 45 -20 65 -4 20 -12 39
-19 42 -8 3 -11 13 -9 23 3 10 -4 40 -15 66 -11 26 -16 47 -11 47 6 0 10 -4
10 -10 0 -5 7 -10 15 -10 7 0 18 -6 22 -14 4 -7 22 -20 39 -29 18 -9 44 -30
60 -46 15 -16 31 -28 36 -25 4 3 8 -2 8 -11 0 -9 13 -21 29 -26 16 -6 32 -17
35 -25 3 -8 10 -14 15 -14 14 0 71 57 71 70 0 5 5 10 10 10 6 0 10 5 10 11 0
5 -4 8 -8 5 -5 -3 -9 2 -9 10 0 10 4 11 10 5 7 -7 23 4 48 32 37 41 50 77 28
77 -5 0 -7 -6 -4 -12 4 -7 -1 -4 -9 6 -9 11 -16 16 -16 10 0 -5 -4 -3 -9 4 -7
12 -25 18 -54 21 -5 1 -5 10 -2 22 6 19 4 21 -27 15 -25 -4 -28 -4 -13 3 11 5
14 10 8 10 -7 1 -13 7 -13 14 0 8 -12 20 -27 28 -44 22 -50 22 -24 0 13 -12
19 -21 14 -21 -6 0 -18 9 -28 20 -10 11 -14 20 -10 20 8 0 1 7 -55 53 -11 10
-25 15 -30 12 -5 -3 -12 0 -16 6 -5 8 -3 9 7 4 8 -4 4 2 -9 14 -17 17 -26 20
-36 12 -10 -8 -17 -7 -27 6 -13 16 -12 17 4 4 15 -12 17 -11 17 3 0 9 -4 16
-9 16 -5 0 -23 14 -40 31 -18 17 -38 29 -45 26 -8 -3 -20 1 -26 9 -7 8 -9 14
-5 14 5 0 0 9 -10 20 -14 16 -20 17 -27 8 -6 -10 -8 -9 -8 3 0 9 -11 22 -25
29 -20 11 -27 11 -42 -1 -16 -13 -17 -12 -4 4 9 11 10 17 2 17 -6 0 -11 7 -11
15 0 24 -13 17 -42 -23z m227 -122 c3 -5 1 -10 -4 -10 -6 0 -11 5 -11 10 0 6
2 10 4 10 3 0 8 -4 11 -10z m-292 -113 c3 -8 1 -20 -4 -28 -6 -10 -9 -7 -9 14
0 29 5 35 13 14z m361 -65 c2 -4 -7 -8 -22 -9 -24 -2 -24 -1 -7 7 11 5 21 9
22 9 1 1 4 -3 7 -7z m-334 -30 c0 -15 -2 -15 -10 -2 -13 20 -13 33 0 25 6 -3
10 -14 10 -23z m615 -102 c-3 -5 -12 -10 -18 -10 -7 0 -6 4 3 10 19 12 23 12
15 0z m-275 -30 c0 -5 -4 -10 -9 -10 -6 0 -13 5 -16 10 -3 6 1 10 9 10 9 0 16
-4 16 -10z m-500 -62 c0 -6 -6 -5 -15 2 -8 7 -15 14 -15 16 0 2 7 1 15 -2 8
-4 15 -11 15 -16z m640 -56 c0 -15 -2 -15 -10 -2 -13 20 -13 33 0 25 6 -3 10
-14 10 -23z m-155 -112 c3 -6 -1 -7 -9 -4 -18 7 -21 14 -7 14 6 0 13 -4 16
-10z m-268 -96 c-3 -3 -12 -4 -19 -1 -8 3 -5 6 6 6 11 1 17 -2 13 -5z m-347
-39 c13 -14 19 -25 14 -25 -11 1 -54 36 -54 44 0 13 18 5 40 -19z m383 -20
c-3 -9 -8 -14 -10 -11 -3 3 -2 9 2 15 9 16 15 13 8 -4z m-312 -52 c13 -17 13
-17 -6 -3 -11 8 -22 16 -24 17 -2 2 0 3 6 3 6 0 17 -8 24 -17z m313 -63 c-6
-6 -10 -3 -10 10 0 13 4 16 10 10 7 -7 7 -13 0 -20z m-234 6 c0 -3 -4 -8 -10
-11 -5 -3 -10 -1 -10 4 0 6 5 11 10 11 6 0 10 -2 10 -4z m30 -41 c0 -8 -2 -15
-4 -15 -2 0 -6 7 -10 15 -3 8 -1 15 4 15 6 0 10 -7 10 -15z"/>
<path d="M1769 2453 c-1 -5 -1 -12 0 -16 1 -5 -3 -6 -8 -3 -8 5 -37 -29 -39
-47 0 -4 -24 -35 -52 -67 -29 -33 -48 -60 -43 -60 4 0 3 -4 -4 -8 -22 -14 -73
-84 -67 -93 3 -5 1 -8 -5 -7 -15 4 -122 -145 -110 -153 6 -4 4 -9 -6 -13 -9
-3 -13 -11 -9 -17 5 -8 8 -8 13 0 5 8 13 7 27 -4 10 -8 13 -15 7 -15 -7 0 0
-13 14 -29 15 -16 32 -27 36 -24 5 3 3 10 -4 15 -11 8 -11 9 1 5 8 -2 15 -10
15 -18 0 -8 9 -13 20 -12 11 1 14 0 8 -3 -22 -10 -14 -27 11 -22 18 4 22 1 19
-12 -3 -12 3 -19 21 -24 15 -4 35 -15 46 -26 11 -11 20 -17 21 -12 0 4 4 -3 9
-15 11 -27 32 -31 24 -5 -5 14 -4 15 5 2 6 -8 11 -23 11 -32 0 -13 -38 11
-131 80 -141 105 -180 132 -191 132 -6 0 -148 -187 -227 -299 -24 -33 -24 -34
-6 -47 17 -13 16 -14 -13 -14 -21 0 -66 -21 -139 -67 -59 -36 -119 -72 -133
-80 -76 -43 -245 -152 -248 -161 -2 -6 16 -12 45 -15 l48 -3 -46 -2 -47 -2 60
-142 c179 -422 195 -458 205 -458 4 0 37 -5 73 -10 36 -5 94 -12 130 -16 36
-3 67 -9 70 -11 7 -7 -220 14 -247 22 -6 2 -43 -38 -81 -88 -106 -141 -202
-262 -210 -264 -4 -2 -14 1 -22 7 -12 7 -9 15 16 47 48 59 209 275 227 304 16
24 15 29 -39 155 -127 296 -188 433 -192 430 -4 -4 -17 -99 -27 -191 -5 -54
-19 -172 -30 -265 -2 -19 -7 -60 -10 -90 -3 -30 -8 -71 -10 -90 -8 -64 -14
-114 -20 -185 -4 -38 -9 -72 -11 -74 -7 -8 -58 35 -80 67 -24 35 -29 61 -48
255 -3 31 -9 83 -12 115 -17 167 -67 353 -110 410 -45 59 -153 94 -239 78 -47
-9 -44 -23 7 -37 128 -34 185 -100 202 -234 13 -101 15 -126 21 -256 13 -290
21 -381 40 -425 31 -76 159 -170 246 -181 45 -6 97 19 105 51 4 17 16 27 42
33 52 14 832 344 832 353 0 4 -33 10 -72 14 -88 9 -168 18 -188 22 -8 1 -30 3
-47 3 -18 1 -33 6 -33 12 0 5 3 8 8 5 4 -2 39 -7 77 -11 39 -3 79 -8 90 -10
11 -2 54 -7 95 -10 41 -4 84 -7 94 -8 17 -2 28 30 92 282 47 181 70 289 64
296 -5 6 -28 12 -52 14 -23 1 -45 5 -48 8 -3 3 29 2 70 -1 l76 -7 59 82 c33
45 88 120 122 167 l62 86 -103 80 c-57 45 -116 90 -132 102 -17 12 -25 25 -20
32 5 9 13 5 28 -13 11 -14 24 -23 29 -20 5 4 9 1 9 -5 0 -7 7 -10 14 -7 10 4
13 1 9 -9 -4 -10 2 -17 16 -21 11 -3 21 -11 21 -18 0 -15 35 -29 49 -21 15 10
40 -5 34 -20 -11 -29 45 -60 65 -35 10 14 11 13 5 -4 -6 -20 -6 -20 16 0 12
11 20 27 18 36 -3 13 0 16 11 12 11 -5 14 -2 9 11 -4 9 -3 15 2 12 14 -9 125
144 115 158 -2 3 -1 4 3 1 8 -6 43 24 43 37 0 10 49 76 92 123 38 42 44 76 19
99 -12 11 -21 16 -21 12 0 -3 -10 0 -23 9 -13 8 -27 12 -31 8 -4 -5 -7 -3 -6
2 5 24 -2 34 -31 44 -37 13 -44 10 -66 -32 -9 -18 -23 -37 -31 -43 -8 -6 -12
-16 -8 -23 4 -6 3 -10 -2 -9 -6 2 -10 -1 -10 -6 0 -5 -5 -12 -10 -15 -21 -13
-91 -105 -86 -113 3 -5 0 -7 -8 -6 -7 2 -13 -4 -12 -13 1 -11 -8 -15 -27 -15
-38 0 -48 30 -21 59 10 12 34 45 52 72 18 28 51 71 72 97 22 26 37 52 34 57
-4 5 -1 13 5 17 8 5 9 3 4 -6 -5 -8 -4 -11 3 -7 14 9 9 40 -8 45 -8 3 -10 0
-6 -7 4 -6 4 -10 -1 -9 -14 4 -53 -13 -53 -23 0 -5 -6 -8 -12 -7 -7 2 -12 -2
-11 -7 1 -6 -7 -11 -17 -12 -27 -2 -205 -117 -203 -131 2 -6 -4 -9 -11 -6 -8
3 -27 -3 -43 -13 -22 -14 -25 -14 -16 -2 7 9 61 44 119 80 59 35 123 74 143
87 20 12 42 25 48 28 7 3 11 10 8 14 -3 5 4 6 14 3 13 -3 19 0 17 9 -7 33 -20
47 -48 53 -16 4 -32 13 -35 21 -11 30 -48 14 -80 -34 -18 -26 -53 -74 -78
-107 -25 -33 -52 -69 -60 -80 -8 -10 -15 -22 -15 -26 0 -8 -39 -4 -47 5 -8 8
-10 55 -3 53 7 -2 50 53 105 135 13 20 35 47 49 60 14 13 26 30 28 38 2 8 10
21 18 28 12 11 12 14 2 19 -7 3 -33 20 -58 39 -24 19 -44 31 -44 28 0 -3 -11
6 -24 20 -24 26 -35 32 -37 19z m302 -250 c13 -16 12 -17 -3 -4 -10 7 -18 15
-18 17 0 8 8 3 21 -13z m24 -91 c-3 -3 -11 0 -18 7 -9 10 -8 11 6 5 10 -3 15
-9 12 -12z m149 -21 c-2 -3 -12 3 -22 13 -16 17 -16 18 5 5 12 -7 20 -15 17
-18z m-684 -11 c0 -5 -2 -10 -4 -10 -3 0 -8 5 -11 10 -3 6 -1 10 4 10 6 0 11
-4 11 -10z m144 -41 c-3 -6 0 -15 7 -20 9 -6 10 -9 2 -9 -15 0 -26 17 -18 30
3 6 8 10 11 10 3 0 2 -5 -2 -11z m651 -19 c3 -5 1 -10 -5 -10 -6 0 -8 -4 -5
-10 3 -6 -1 -7 -9 -4 -10 4 -58 -19 -118 -56 -57 -35 -112 -68 -123 -74 -11
-6 -38 -23 -60 -37 -54 -34 -71 -44 -63 -34 4 4 2 15 -5 23 -9 12 -9 14 0 9
12 -7 57 9 98 35 78 51 132 84 145 89 8 4 40 23 70 43 59 39 66 41 75 26z
m-615 -30 c8 -5 11 -10 5 -10 -5 0 -17 5 -25 10 -8 5 -10 10 -5 10 6 0 17 -5
25 -10z m205 -8 c-3 -3 -11 0 -18 7 -9 10 -8 11 6 5 10 -3 15 -9 12 -12z m312
-118 c-3 -3 -12 -4 -19 -1 -8 3 -5 6 6 6 11 1 17 -2 13 -5z m-437 -118 c0 -2
-7 -7 -16 -10 -8 -3 -12 -2 -9 4 6 10 25 14 25 6z m335 -6 c-3 -5 -12 -10 -18
-10 -7 0 -6 4 3 10 19 12 23 12 15 0z m-758 -166 c-3 -3 -12 -4 -19 -1 -8 3
-5 6 6 6 11 1 17 -2 13 -5z m-579 -321 c-10 -2 -26 -2 -35 0 -10 3 -2 5 17 5
19 0 27 -2 18 -5z m239 -19 c-3 -3 -12 -4 -19 -1 -8 3 -5 6 6 6 11 1 17 -2 13
-5z m157 -12 c2 -4 -12 -6 -32 -4 -62 6 -69 10 -20 11 26 0 49 -3 52 -7z m41
-10 c-3 -3 -11 0 -18 7 -9 10 -8 11 6 5 10 -3 15 -9 12 -12z m85 -2 c-10 -6
-70 -1 -70 6 0 2 18 3 40 2 23 -1 36 -4 30 -8z m98 -7 c-10 -2 -28 -2 -40 0
-13 2 -5 4 17 4 22 1 32 -1 23 -4z m95 -10 c-7 -2 -21 -2 -30 0 -10 3 -4 5 12
5 17 0 24 -2 18 -5z m47 1 c0 -8 -19 -13 -24 -6 -3 5 1 9 9 9 8 0 15 -2 15 -3z
m-933 -980 c-3 -3 -12 -4 -19 -1 -8 3 -5 6 6 6 11 1 17 -2 13 -5z"/>
<path d="M1305 2051 c-3 -5 -1 -12 5 -16 5 -3 10 1 10 9 0 18 -6 21 -15 7z"/>
<path d="M1920 1594 c0 -8 5 -12 10 -9 6 4 8 11 5 16 -9 14 -15 11 -15 -7z"/>
<path d="M2002 1484 c-9 -13 -27 -37 -40 -52 -13 -15 -39 -52 -59 -82 -20 -30
-43 -60 -52 -67 -9 -7 -12 -13 -8 -13 4 0 3 -6 -3 -12 -5 -7 -23 -29 -40 -48
-16 -19 -34 -46 -41 -60 -6 -14 -15 -33 -20 -42 -5 -10 -9 -28 -9 -41 0 -12
-7 -32 -15 -44 -9 -12 -11 -24 -6 -27 5 -4 3 -20 -6 -38 -9 -17 -16 -48 -17
-69 -1 -20 -5 -37 -11 -36 -5 1 -10 -7 -11 -18 0 -11 -7 -40 -16 -65 -9 -25
-25 -74 -37 -110 l-20 -65 32 -27 c18 -16 45 -28 62 -28 17 -1 39 -5 50 -9 11
-5 30 -4 43 0 14 6 21 5 17 0 -11 -19 18 -23 35 -5 18 20 56 131 66 196 5 26
10 35 21 31 7 -3 13 -13 12 -22 -3 -33 1 -62 9 -58 4 3 5 -19 4 -49 -2 -32 0
-54 6 -54 6 0 12 5 14 12 2 6 15 13 29 15 18 2 20 1 9 -6 -8 -5 -17 -8 -21 -6
-7 5 -29 -40 -29 -60 0 -8 5 -15 11 -15 5 0 7 -5 3 -12 -5 -8 -2 -9 11 -4 15
5 16 4 6 -8 -8 -10 -9 -16 -1 -21 5 -3 10 -1 10 6 0 8 7 5 20 -6 11 -10 28
-15 40 -12 11 3 18 2 15 -3 -5 -7 42 -25 58 -22 4 1 7 -2 7 -6 0 -4 17 -9 38
-10 20 -2 42 -8 47 -15 18 -24 43 -26 61 -6 9 10 12 19 7 19 -6 0 -10 12 -10
26 0 14 -6 37 -12 50 -6 13 -16 34 -22 47 -5 13 -12 32 -13 42 -2 11 -9 19
-17 17 -9 -2 -9 1 2 14 11 13 11 18 1 21 -6 3 -9 10 -5 16 4 6 0 8 -11 4 -14
-6 -15 -4 -5 15 9 17 9 23 0 26 -6 2 -11 14 -11 27 0 34 -18 77 -30 70 -5 -3
-10 -2 -10 4 0 5 4 12 9 15 4 3 6 17 3 31 -2 14 -1 25 4 24 21 -5 172 35 170
45 -2 6 -1 8 1 4 3 -5 18 -8 34 -8 23 0 27 3 22 18 -6 15 -5 16 12 2 13 -10
19 -11 22 -4 2 7 13 9 25 6 13 -3 19 -1 15 5 -4 6 3 8 18 6 27 -6 95 14 95 28
0 5 7 9 15 9 20 0 19 15 -3 37 -19 18 -36 52 -34 66 1 4 -1 6 -5 5 -5 -2 -9 0
-10 5 -2 4 -14 19 -27 34 -14 15 -23 30 -20 35 3 4 -2 11 -10 14 -9 3 -13 10
-10 15 3 6 -8 7 -28 3 -18 -3 -44 -7 -58 -9 -14 -2 -52 -11 -85 -20 -33 -9
-76 -18 -95 -21 -19 -3 -36 -9 -38 -14 -2 -5 -10 -6 -19 -3 -8 3 -18 1 -22 -5
-3 -6 -12 -8 -19 -3 -9 5 5 29 45 81 32 41 52 71 45 66 -8 -5 -10 -2 -6 8 3 8
14 18 23 21 17 5 41 44 41 67 0 6 -9 8 -20 5 -11 -3 -23 0 -27 5 -4 7 -1 8 7
3 8 -5 11 -3 8 6 -2 8 -17 20 -31 27 -15 7 -27 17 -27 23 0 5 -9 9 -19 9 -10
0 -21 7 -25 15 -3 8 -10 15 -17 15 -6 0 -19 10 -28 22 -25 30 -48 31 -69 2z
m57 -8 c9 -11 9 -16 0 -22 -8 -4 -9 -3 -5 4 4 7 1 12 -8 12 -8 0 -18 5 -21 10
-10 15 21 12 34 -4z m-112 -106 c1 -12 -4 -20 -13 -20 -12 0 -12 4 -4 20 6 11
12 20 13 20 2 0 3 -9 4 -20z m118 -130 c-3 -5 -12 -10 -18 -10 -7 0 -6 4 3 10
19 12 23 12 15 0z m95 -6 c0 -8 -19 -13 -24 -6 -3 5 1 9 9 9 8 0 15 -2 15 -3z
m-87 -129 c-3 -9 -8 -14 -10 -11 -3 3 -2 9 2 15 9 16 15 13 8 -4z m192 -5 c3
-5 1 -10 -4 -10 -6 0 -11 5 -11 10 0 6 2 10 4 10 3 0 8 -4 11 -10z m235 5 c0
-7 -30 -13 -34 -7 -3 4 4 9 15 9 10 1 19 0 19 -2z m-307 -100 c-3 -9 -8 -14
-11 -11 -2 3 -13 1 -23 -5 -11 -5 -19 -7 -19 -5 0 4 48 34 57 36 1 0 0 -7 -4
-15z m357 -40 c0 -2 -10 -9 -22 -15 -22 -11 -22 -10 -4 4 21 17 26 19 26 11z
m-355 -85 c3 -5 -1 -10 -10 -10 -9 0 -13 5 -10 10 3 6 8 10 10 10 2 0 7 -4 10
-10z m-313 -147 c-6 -2 -10 -9 -6 -14 3 -5 -2 -9 -12 -9 -13 0 -14 3 -4 15 7
8 18 15 24 14 7 0 6 -2 -2 -6z m285 -8 c0 -8 -4 -12 -9 -9 -4 3 -8 9 -8 15 0
5 4 9 8 9 5 0 9 -7 9 -15z m-342 -5 c3 -5 1 -10 -4 -10 -6 0 -11 5 -11 10 0 6
2 10 4 10 3 0 8 -4 11 -10z m135 3 c0 -5 -5 -15 -10 -23 -8 -12 -10 -11 -10 8
0 12 5 22 10 22 6 0 10 -3 10 -7z m-323 -129 c-3 -3 -12 -4 -19 -1 -8 3 -5 6
6 6 11 1 17 -2 13 -5z m80 -40 c-3 -3 -12 -4 -19 -1 -8 3 -5 6 6 6 11 1 17 -2
13 -5z m328 -84 c-3 -5 -12 -10 -18 -10 -7 0 -6 4 3 10 19 12 23 12 15 0z
m205 0 c0 -5 -2 -10 -4 -10 -3 0 -8 5 -11 10 -3 6 -1 10 4 10 6 0 11 -4 11
-10z m5 -70 c3 -5 2 -10 -4 -10 -5 0 -13 5 -16 10 -3 6 -2 10 4 10 5 0 13 -4
16 -10z"/>
</g>
</svg>
